<mxfile host="app.diagrams.net" agent="Mozilla/5.0 (Windows NT 10.0; Win64; x64) AppleWebKit/537.36 (KHTML, like Gecko) Chrome/130.0.0.0 Safari/537.36" version="24.8.6" pages="3">
  <diagram name="Halaman-1" id="fqVSeHhVZzrJKFvBmT3e">
    <mxGraphModel dx="880" dy="468" grid="1" gridSize="10" guides="1" tooltips="1" connect="1" arrows="1" fold="1" page="1" pageScale="1" pageWidth="827" pageHeight="1169" math="0" shadow="0">
      <root>
        <mxCell id="0" />
        <mxCell id="1" parent="0" />
        <mxCell id="hkS3TEEYYJLq3DjDljIm-1" value="Start" style="whiteSpace=wrap;strokeWidth=2;" vertex="1" parent="1">
          <mxGeometry x="140" y="20" width="96" height="49" as="geometry" />
        </mxCell>
        <mxCell id="hkS3TEEYYJLq3DjDljIm-2" value="Setup" style="whiteSpace=wrap;strokeWidth=2;" vertex="1" parent="1">
          <mxGeometry x="137" y="119" width="101" height="49" as="geometry" />
        </mxCell>
        <mxCell id="hkS3TEEYYJLq3DjDljIm-3" value="DisplayPortal" style="whiteSpace=wrap;strokeWidth=2;" vertex="1" parent="1">
          <mxGeometry x="111" y="218" width="154" height="49" as="geometry" />
        </mxCell>
        <mxCell id="hkS3TEEYYJLq3DjDljIm-4" value="Pengguna atur WiFi?" style="rhombus;strokeWidth=2;whiteSpace=wrap;" vertex="1" parent="1">
          <mxGeometry x="91" y="317" width="193" height="193" as="geometry" />
        </mxCell>
        <mxCell id="hkS3TEEYYJLq3DjDljIm-5" value="WiFi Terhubung?" style="rhombus;strokeWidth=2;whiteSpace=wrap;" vertex="1" parent="1">
          <mxGeometry x="32" y="583" width="166" height="166" as="geometry" />
        </mxCell>
        <mxCell id="hkS3TEEYYJLq3DjDljIm-6" value="FailedWiFi" style="whiteSpace=wrap;strokeWidth=2;" vertex="1" parent="1">
          <mxGeometry x="215" y="822" width="135" height="49" as="geometry" />
        </mxCell>
        <mxCell id="hkS3TEEYYJLq3DjDljIm-7" value="SuccessWiFi" style="whiteSpace=wrap;strokeWidth=2;" vertex="1" parent="1">
          <mxGeometry x="20" y="822" width="145" height="49" as="geometry" />
        </mxCell>
        <mxCell id="hkS3TEEYYJLq3DjDljIm-8" value="MainLoop" style="whiteSpace=wrap;strokeWidth=2;" vertex="1" parent="1">
          <mxGeometry x="123" y="921" width="128" height="49" as="geometry" />
        </mxCell>
        <mxCell id="hkS3TEEYYJLq3DjDljIm-9" value="" style="curved=1;startArrow=none;endArrow=block;exitX=0.49;exitY=1;entryX=0.5;entryY=0;rounded=0;" edge="1" parent="1" source="hkS3TEEYYJLq3DjDljIm-1" target="hkS3TEEYYJLq3DjDljIm-2">
          <mxGeometry relative="1" as="geometry">
            <Array as="points" />
          </mxGeometry>
        </mxCell>
        <mxCell id="hkS3TEEYYJLq3DjDljIm-10" value="" style="curved=1;startArrow=none;endArrow=block;exitX=0.5;exitY=1;entryX=0.5;entryY=0;rounded=0;" edge="1" parent="1" source="hkS3TEEYYJLq3DjDljIm-2" target="hkS3TEEYYJLq3DjDljIm-3">
          <mxGeometry relative="1" as="geometry">
            <Array as="points" />
          </mxGeometry>
        </mxCell>
        <mxCell id="hkS3TEEYYJLq3DjDljIm-11" value="" style="curved=1;startArrow=none;endArrow=block;exitX=0.5;exitY=1;entryX=0.5;entryY=0;rounded=0;" edge="1" parent="1" source="hkS3TEEYYJLq3DjDljIm-3" target="hkS3TEEYYJLq3DjDljIm-4">
          <mxGeometry relative="1" as="geometry">
            <Array as="points" />
          </mxGeometry>
        </mxCell>
        <mxCell id="hkS3TEEYYJLq3DjDljIm-12" value="Yes" style="curved=1;startArrow=none;endArrow=block;exitX=0.23;exitY=1;entryX=0.5;entryY=0;rounded=0;" edge="1" parent="1" source="hkS3TEEYYJLq3DjDljIm-4" target="hkS3TEEYYJLq3DjDljIm-5">
          <mxGeometry relative="1" as="geometry">
            <Array as="points">
              <mxPoint x="115" y="546" />
            </Array>
          </mxGeometry>
        </mxCell>
        <mxCell id="hkS3TEEYYJLq3DjDljIm-13" value="No" style="curved=1;startArrow=none;endArrow=block;exitX=0.92;exitY=1;entryX=0.55;entryY=-0.01;rounded=0;" edge="1" parent="1" source="hkS3TEEYYJLq3DjDljIm-4" target="hkS3TEEYYJLq3DjDljIm-6">
          <mxGeometry relative="1" as="geometry">
            <Array as="points">
              <mxPoint x="298" y="546" />
              <mxPoint x="298" y="785" />
            </Array>
          </mxGeometry>
        </mxCell>
        <mxCell id="hkS3TEEYYJLq3DjDljIm-14" value="Yes" style="curved=1;startArrow=none;endArrow=block;exitX=0.41;exitY=1;entryX=0.5;entryY=-0.01;rounded=0;" edge="1" parent="1" source="hkS3TEEYYJLq3DjDljIm-5" target="hkS3TEEYYJLq3DjDljIm-7">
          <mxGeometry relative="1" as="geometry">
            <Array as="points">
              <mxPoint x="92" y="785" />
            </Array>
          </mxGeometry>
        </mxCell>
        <mxCell id="hkS3TEEYYJLq3DjDljIm-15" value="No" style="curved=1;startArrow=none;endArrow=block;exitX=0.9;exitY=1;entryX=0.28;entryY=-0.01;rounded=0;" edge="1" parent="1" source="hkS3TEEYYJLq3DjDljIm-5" target="hkS3TEEYYJLq3DjDljIm-6">
          <mxGeometry relative="1" as="geometry">
            <Array as="points">
              <mxPoint x="210" y="785" />
            </Array>
          </mxGeometry>
        </mxCell>
        <mxCell id="hkS3TEEYYJLq3DjDljIm-16" value="" style="curved=1;startArrow=none;endArrow=block;exitX=0.5;exitY=0.99;entryX=0.14;entryY=-0.01;rounded=0;" edge="1" parent="1" source="hkS3TEEYYJLq3DjDljIm-7" target="hkS3TEEYYJLq3DjDljIm-8">
          <mxGeometry relative="1" as="geometry">
            <Array as="points">
              <mxPoint x="92" y="896" />
            </Array>
          </mxGeometry>
        </mxCell>
        <mxCell id="hkS3TEEYYJLq3DjDljIm-17" value="" style="curved=1;startArrow=none;endArrow=block;exitX=0.5;exitY=0.99;entryX=0.87;entryY=-0.01;rounded=0;" edge="1" parent="1" source="hkS3TEEYYJLq3DjDljIm-6" target="hkS3TEEYYJLq3DjDljIm-8">
          <mxGeometry relative="1" as="geometry">
            <Array as="points">
              <mxPoint x="282" y="896" />
            </Array>
          </mxGeometry>
        </mxCell>
      </root>
    </mxGraphModel>
  </diagram>
  <diagram id="phs5RARFuRhvMdh9XBnE" name="Halaman-2">
    <mxGraphModel dx="880" dy="468" grid="1" gridSize="10" guides="1" tooltips="1" connect="1" arrows="1" fold="1" page="1" pageScale="1" pageWidth="827" pageHeight="1169" math="0" shadow="0">
      <root>
        <mxCell id="0" />
        <mxCell id="1" parent="0" />
        <mxCell id="WLa8XC4-F9E1G-NIb9bS-1" value="Start" style="whiteSpace=wrap;strokeWidth=2;" vertex="1" parent="1">
          <mxGeometry x="429" y="20" width="96" height="49" as="geometry" />
        </mxCell>
        <mxCell id="WLa8XC4-F9E1G-NIb9bS-2" value="Setup" style="whiteSpace=wrap;strokeWidth=2;" vertex="1" parent="1">
          <mxGeometry x="427" y="119" width="101" height="49" as="geometry" />
        </mxCell>
        <mxCell id="WLa8XC4-F9E1G-NIb9bS-3" value="ConnectWiFi" style="whiteSpace=wrap;strokeWidth=2;" vertex="1" parent="1">
          <mxGeometry x="402" y="218" width="150" height="49" as="geometry" />
        </mxCell>
        <mxCell id="WLa8XC4-F9E1G-NIb9bS-4" value="WiFi Terhubung?" style="rhombus;strokeWidth=2;whiteSpace=wrap;" vertex="1" parent="1">
          <mxGeometry x="325" y="317" width="166" height="166" as="geometry" />
        </mxCell>
        <mxCell id="WLa8XC4-F9E1G-NIb9bS-5" value="StartServer" style="whiteSpace=wrap;strokeWidth=2;" vertex="1" parent="1">
          <mxGeometry x="314" y="556" width="141" height="49" as="geometry" />
        </mxCell>
        <mxCell id="WLa8XC4-F9E1G-NIb9bS-6" value="RetryWiFi" style="whiteSpace=wrap;strokeWidth=2;" vertex="1" parent="1">
          <mxGeometry x="505" y="556" width="129" height="49" as="geometry" />
        </mxCell>
        <mxCell id="WLa8XC4-F9E1G-NIb9bS-7" value="WaitForClient" style="whiteSpace=wrap;strokeWidth=2;" vertex="1" parent="1">
          <mxGeometry x="305" y="655" width="160" height="49" as="geometry" />
        </mxCell>
        <mxCell id="WLa8XC4-F9E1G-NIb9bS-8" value="Ada Klien?" style="rhombus;strokeWidth=2;whiteSpace=wrap;" vertex="1" parent="1">
          <mxGeometry x="307" y="777" width="124" height="124" as="geometry" />
        </mxCell>
        <mxCell id="WLa8XC4-F9E1G-NIb9bS-9" value="HandleRequest" style="whiteSpace=wrap;strokeWidth=2;" vertex="1" parent="1">
          <mxGeometry x="285" y="973" width="167" height="49" as="geometry" />
        </mxCell>
        <mxCell id="WLa8XC4-F9E1G-NIb9bS-10" value="ParseHeader" style="whiteSpace=wrap;strokeWidth=2;" vertex="1" parent="1">
          <mxGeometry x="294" y="1072" width="150" height="49" as="geometry" />
        </mxCell>
        <mxCell id="WLa8XC4-F9E1G-NIb9bS-11" value="Permintaan GPIO?" style="rhombus;strokeWidth=2;whiteSpace=wrap;" vertex="1" parent="1">
          <mxGeometry x="281" y="1171" width="176" height="176" as="geometry" />
        </mxCell>
        <mxCell id="WLa8XC4-F9E1G-NIb9bS-12" value="GPIO5On" style="whiteSpace=wrap;strokeWidth=2;" vertex="1" parent="1">
          <mxGeometry x="80" y="1421" width="123" height="49" as="geometry" />
        </mxCell>
        <mxCell id="WLa8XC4-F9E1G-NIb9bS-13" value="GPIO5Off" style="whiteSpace=wrap;strokeWidth=2;" vertex="1" parent="1">
          <mxGeometry x="305" y="1421" width="127" height="49" as="geometry" />
        </mxCell>
        <mxCell id="WLa8XC4-F9E1G-NIb9bS-14" value="GPIO4On" style="whiteSpace=wrap;strokeWidth=2;" vertex="1" parent="1">
          <mxGeometry x="534" y="1421" width="123" height="49" as="geometry" />
        </mxCell>
        <mxCell id="WLa8XC4-F9E1G-NIb9bS-15" value="GPIO4Off" style="whiteSpace=wrap;strokeWidth=2;" vertex="1" parent="1">
          <mxGeometry x="759" y="1421" width="127" height="49" as="geometry" />
        </mxCell>
        <mxCell id="WLa8XC4-F9E1G-NIb9bS-16" value="SendResponse" style="whiteSpace=wrap;strokeWidth=2;" vertex="1" parent="1">
          <mxGeometry x="196" y="1642" width="160" height="49" as="geometry" />
        </mxCell>
        <mxCell id="WLa8XC4-F9E1G-NIb9bS-17" value="UpdateGPIO5On" style="whiteSpace=wrap;strokeWidth=2;" vertex="1" parent="1">
          <mxGeometry x="55" y="1543" width="175" height="49" as="geometry" />
        </mxCell>
        <mxCell id="WLa8XC4-F9E1G-NIb9bS-18" value="UpdateGPIO5Off" style="whiteSpace=wrap;strokeWidth=2;" vertex="1" parent="1">
          <mxGeometry x="279" y="1543" width="179" height="49" as="geometry" />
        </mxCell>
        <mxCell id="WLa8XC4-F9E1G-NIb9bS-19" value="UpdateGPIO4On" style="whiteSpace=wrap;strokeWidth=2;" vertex="1" parent="1">
          <mxGeometry x="508" y="1543" width="175" height="49" as="geometry" />
        </mxCell>
        <mxCell id="WLa8XC4-F9E1G-NIb9bS-20" value="UpdateGPIO4Off" style="whiteSpace=wrap;strokeWidth=2;" vertex="1" parent="1">
          <mxGeometry x="733" y="1543" width="179" height="49" as="geometry" />
        </mxCell>
        <mxCell id="WLa8XC4-F9E1G-NIb9bS-21" value="DisconnectClient" style="whiteSpace=wrap;strokeWidth=2;" vertex="1" parent="1">
          <mxGeometry x="475" y="1741" width="181" height="49" as="geometry" />
        </mxCell>
        <mxCell id="WLa8XC4-F9E1G-NIb9bS-22" value="" style="curved=1;startArrow=none;endArrow=block;exitX=0.5;exitY=1;entryX=0.5;entryY=0;rounded=0;" edge="1" parent="1" source="WLa8XC4-F9E1G-NIb9bS-1" target="WLa8XC4-F9E1G-NIb9bS-2">
          <mxGeometry relative="1" as="geometry">
            <Array as="points" />
          </mxGeometry>
        </mxCell>
        <mxCell id="WLa8XC4-F9E1G-NIb9bS-23" value="" style="curved=1;startArrow=none;endArrow=block;exitX=0.5;exitY=1;entryX=0.5;entryY=0;rounded=0;" edge="1" parent="1" source="WLa8XC4-F9E1G-NIb9bS-2" target="WLa8XC4-F9E1G-NIb9bS-3">
          <mxGeometry relative="1" as="geometry">
            <Array as="points" />
          </mxGeometry>
        </mxCell>
        <mxCell id="WLa8XC4-F9E1G-NIb9bS-24" value="" style="curved=1;startArrow=none;endArrow=block;exitX=0.27;exitY=1;entryX=0.5;entryY=0;rounded=0;" edge="1" parent="1" source="WLa8XC4-F9E1G-NIb9bS-3" target="WLa8XC4-F9E1G-NIb9bS-4">
          <mxGeometry relative="1" as="geometry">
            <Array as="points">
              <mxPoint x="407" y="292" />
            </Array>
          </mxGeometry>
        </mxCell>
        <mxCell id="WLa8XC4-F9E1G-NIb9bS-25" value="Yes" style="curved=1;startArrow=none;endArrow=block;exitX=0.4;exitY=1;entryX=0.5;entryY=-0.01;rounded=0;" edge="1" parent="1" source="WLa8XC4-F9E1G-NIb9bS-4" target="WLa8XC4-F9E1G-NIb9bS-5">
          <mxGeometry relative="1" as="geometry">
            <Array as="points">
              <mxPoint x="385" y="519" />
            </Array>
          </mxGeometry>
        </mxCell>
        <mxCell id="WLa8XC4-F9E1G-NIb9bS-26" value="No" style="curved=1;startArrow=none;endArrow=block;exitX=0.88;exitY=1;entryX=0.28;entryY=-0.01;rounded=0;" edge="1" parent="1" source="WLa8XC4-F9E1G-NIb9bS-4" target="WLa8XC4-F9E1G-NIb9bS-6">
          <mxGeometry relative="1" as="geometry">
            <Array as="points">
              <mxPoint x="500" y="519" />
            </Array>
          </mxGeometry>
        </mxCell>
        <mxCell id="WLa8XC4-F9E1G-NIb9bS-27" value="" style="curved=1;startArrow=none;endArrow=block;exitX=0.55;exitY=-0.01;entryX=0.86;entryY=1;rounded=0;" edge="1" parent="1" source="WLa8XC4-F9E1G-NIb9bS-6" target="WLa8XC4-F9E1G-NIb9bS-3">
          <mxGeometry relative="1" as="geometry">
            <Array as="points">
              <mxPoint x="585" y="519" />
              <mxPoint x="585" y="292" />
            </Array>
          </mxGeometry>
        </mxCell>
        <mxCell id="WLa8XC4-F9E1G-NIb9bS-28" value="" style="curved=1;startArrow=none;endArrow=block;exitX=0.5;exitY=0.99;entryX=0.5;entryY=-0.01;rounded=0;" edge="1" parent="1" source="WLa8XC4-F9E1G-NIb9bS-5" target="WLa8XC4-F9E1G-NIb9bS-7">
          <mxGeometry relative="1" as="geometry">
            <Array as="points" />
          </mxGeometry>
        </mxCell>
        <mxCell id="WLa8XC4-F9E1G-NIb9bS-29" value="" style="curved=1;startArrow=none;endArrow=block;exitX=0.42;exitY=0.99;entryX=0.42;entryY=0;rounded=0;" edge="1" parent="1" source="WLa8XC4-F9E1G-NIb9bS-7" target="WLa8XC4-F9E1G-NIb9bS-8">
          <mxGeometry relative="1" as="geometry">
            <Array as="points">
              <mxPoint x="353" y="740" />
            </Array>
          </mxGeometry>
        </mxCell>
        <mxCell id="WLa8XC4-F9E1G-NIb9bS-30" value="Yes" style="curved=1;startArrow=none;endArrow=block;exitX=0.5;exitY=0.99;entryX=0.5;entryY=0;rounded=0;" edge="1" parent="1" source="WLa8XC4-F9E1G-NIb9bS-8" target="WLa8XC4-F9E1G-NIb9bS-9">
          <mxGeometry relative="1" as="geometry">
            <Array as="points" />
          </mxGeometry>
        </mxCell>
        <mxCell id="WLa8XC4-F9E1G-NIb9bS-31" value="No" style="curved=1;startArrow=none;endArrow=block;exitX=1;exitY=0.17;entryX=0.83;entryY=0.99;rounded=0;" edge="1" parent="1" source="WLa8XC4-F9E1G-NIb9bS-8" target="WLa8XC4-F9E1G-NIb9bS-7">
          <mxGeometry relative="1" as="geometry">
            <Array as="points">
              <mxPoint x="519" y="740" />
            </Array>
          </mxGeometry>
        </mxCell>
        <mxCell id="WLa8XC4-F9E1G-NIb9bS-32" value="" style="curved=1;startArrow=none;endArrow=block;exitX=0.5;exitY=1;entryX=0.5;entryY=0;rounded=0;" edge="1" parent="1" source="WLa8XC4-F9E1G-NIb9bS-9" target="WLa8XC4-F9E1G-NIb9bS-10">
          <mxGeometry relative="1" as="geometry">
            <Array as="points" />
          </mxGeometry>
        </mxCell>
        <mxCell id="WLa8XC4-F9E1G-NIb9bS-33" value="" style="curved=1;startArrow=none;endArrow=block;exitX=0.5;exitY=1;entryX=0.5;entryY=0;rounded=0;" edge="1" parent="1" source="WLa8XC4-F9E1G-NIb9bS-10" target="WLa8XC4-F9E1G-NIb9bS-11">
          <mxGeometry relative="1" as="geometry">
            <Array as="points" />
          </mxGeometry>
        </mxCell>
        <mxCell id="WLa8XC4-F9E1G-NIb9bS-34" value="GPIO 5 On" style="curved=1;startArrow=none;endArrow=block;exitX=0;exitY=0.78;entryX=0.5;entryY=-0.01;rounded=0;" edge="1" parent="1" source="WLa8XC4-F9E1G-NIb9bS-11" target="WLa8XC4-F9E1G-NIb9bS-12">
          <mxGeometry relative="1" as="geometry">
            <Array as="points">
              <mxPoint x="142" y="1384" />
            </Array>
          </mxGeometry>
        </mxCell>
        <mxCell id="WLa8XC4-F9E1G-NIb9bS-35" value="GPIO 5 Off" style="curved=1;startArrow=none;endArrow=block;exitX=0.5;exitY=1;entryX=0.5;entryY=-0.01;rounded=0;" edge="1" parent="1" source="WLa8XC4-F9E1G-NIb9bS-11" target="WLa8XC4-F9E1G-NIb9bS-13">
          <mxGeometry relative="1" as="geometry">
            <Array as="points" />
          </mxGeometry>
        </mxCell>
        <mxCell id="WLa8XC4-F9E1G-NIb9bS-36" value="GPIO 4 On" style="curved=1;startArrow=none;endArrow=block;exitX=1;exitY=0.78;entryX=0.5;entryY=-0.01;rounded=0;" edge="1" parent="1" source="WLa8XC4-F9E1G-NIb9bS-11" target="WLa8XC4-F9E1G-NIb9bS-14">
          <mxGeometry relative="1" as="geometry">
            <Array as="points">
              <mxPoint x="596" y="1384" />
            </Array>
          </mxGeometry>
        </mxCell>
        <mxCell id="WLa8XC4-F9E1G-NIb9bS-37" value="GPIO 4 Off" style="curved=1;startArrow=none;endArrow=block;exitX=1;exitY=0.64;entryX=0.5;entryY=-0.01;rounded=0;" edge="1" parent="1" source="WLa8XC4-F9E1G-NIb9bS-11" target="WLa8XC4-F9E1G-NIb9bS-15">
          <mxGeometry relative="1" as="geometry">
            <Array as="points">
              <mxPoint x="822" y="1384" />
            </Array>
          </mxGeometry>
        </mxCell>
        <mxCell id="WLa8XC4-F9E1G-NIb9bS-38" value="No" style="curved=1;startArrow=none;endArrow=block;exitX=0;exitY=0.68;entryX=0;entryY=0.18;rounded=0;" edge="1" parent="1" source="WLa8XC4-F9E1G-NIb9bS-11" target="WLa8XC4-F9E1G-NIb9bS-16">
          <mxGeometry relative="1" as="geometry">
            <Array as="points">
              <mxPoint x="20" y="1384" />
              <mxPoint x="20" y="1617" />
            </Array>
          </mxGeometry>
        </mxCell>
        <mxCell id="WLa8XC4-F9E1G-NIb9bS-39" value="" style="curved=1;startArrow=none;endArrow=block;exitX=0.5;exitY=0.99;entryX=0.5;entryY=-0.01;rounded=0;" edge="1" parent="1" source="WLa8XC4-F9E1G-NIb9bS-12" target="WLa8XC4-F9E1G-NIb9bS-17">
          <mxGeometry relative="1" as="geometry">
            <Array as="points" />
          </mxGeometry>
        </mxCell>
        <mxCell id="WLa8XC4-F9E1G-NIb9bS-40" value="" style="curved=1;startArrow=none;endArrow=block;exitX=0.5;exitY=0.99;entryX=0.5;entryY=-0.01;rounded=0;" edge="1" parent="1" source="WLa8XC4-F9E1G-NIb9bS-13" target="WLa8XC4-F9E1G-NIb9bS-18">
          <mxGeometry relative="1" as="geometry">
            <Array as="points" />
          </mxGeometry>
        </mxCell>
        <mxCell id="WLa8XC4-F9E1G-NIb9bS-41" value="" style="curved=1;startArrow=none;endArrow=block;exitX=0.5;exitY=0.99;entryX=0.5;entryY=-0.01;rounded=0;" edge="1" parent="1" source="WLa8XC4-F9E1G-NIb9bS-14" target="WLa8XC4-F9E1G-NIb9bS-19">
          <mxGeometry relative="1" as="geometry">
            <Array as="points" />
          </mxGeometry>
        </mxCell>
        <mxCell id="WLa8XC4-F9E1G-NIb9bS-42" value="" style="curved=1;startArrow=none;endArrow=block;exitX=0.5;exitY=0.99;entryX=0.5;entryY=-0.01;rounded=0;" edge="1" parent="1" source="WLa8XC4-F9E1G-NIb9bS-15" target="WLa8XC4-F9E1G-NIb9bS-20">
          <mxGeometry relative="1" as="geometry">
            <Array as="points" />
          </mxGeometry>
        </mxCell>
        <mxCell id="WLa8XC4-F9E1G-NIb9bS-43" value="" style="curved=1;startArrow=none;endArrow=block;exitX=0.5;exitY=0.99;entryX=0.09;entryY=-0.01;rounded=0;" edge="1" parent="1" source="WLa8XC4-F9E1G-NIb9bS-17" target="WLa8XC4-F9E1G-NIb9bS-16">
          <mxGeometry relative="1" as="geometry">
            <Array as="points">
              <mxPoint x="142" y="1617" />
            </Array>
          </mxGeometry>
        </mxCell>
        <mxCell id="WLa8XC4-F9E1G-NIb9bS-44" value="" style="curved=1;startArrow=none;endArrow=block;exitX=0.5;exitY=0.99;entryX=0.79;entryY=-0.01;rounded=0;" edge="1" parent="1" source="WLa8XC4-F9E1G-NIb9bS-18" target="WLa8XC4-F9E1G-NIb9bS-16">
          <mxGeometry relative="1" as="geometry">
            <Array as="points">
              <mxPoint x="369" y="1617" />
            </Array>
          </mxGeometry>
        </mxCell>
        <mxCell id="WLa8XC4-F9E1G-NIb9bS-45" value="" style="curved=1;startArrow=none;endArrow=block;exitX=0.5;exitY=0.99;entryX=1;entryY=0.24;rounded=0;" edge="1" parent="1" source="WLa8XC4-F9E1G-NIb9bS-19" target="WLa8XC4-F9E1G-NIb9bS-16">
          <mxGeometry relative="1" as="geometry">
            <Array as="points">
              <mxPoint x="596" y="1617" />
            </Array>
          </mxGeometry>
        </mxCell>
        <mxCell id="WLa8XC4-F9E1G-NIb9bS-46" value="" style="curved=1;startArrow=none;endArrow=block;exitX=0.5;exitY=0.99;entryX=1;entryY=0.34;rounded=0;" edge="1" parent="1" source="WLa8XC4-F9E1G-NIb9bS-20" target="WLa8XC4-F9E1G-NIb9bS-16">
          <mxGeometry relative="1" as="geometry">
            <Array as="points">
              <mxPoint x="822" y="1617" />
            </Array>
          </mxGeometry>
        </mxCell>
        <mxCell id="WLa8XC4-F9E1G-NIb9bS-47" value="" style="curved=1;startArrow=none;endArrow=block;exitX=0.5;exitY=0.99;entryX=0;entryY=0.17;rounded=0;" edge="1" parent="1" source="WLa8XC4-F9E1G-NIb9bS-16" target="WLa8XC4-F9E1G-NIb9bS-21">
          <mxGeometry relative="1" as="geometry">
            <Array as="points">
              <mxPoint x="276" y="1716" />
            </Array>
          </mxGeometry>
        </mxCell>
        <mxCell id="WLa8XC4-F9E1G-NIb9bS-48" value="" style="curved=1;startArrow=none;endArrow=block;exitX=1;exitY=0.25;entryX=1;entryY=0.67;rounded=0;" edge="1" parent="1" source="WLa8XC4-F9E1G-NIb9bS-21" target="WLa8XC4-F9E1G-NIb9bS-7">
          <mxGeometry relative="1" as="geometry">
            <Array as="points">
              <mxPoint x="947" y="1716" />
              <mxPoint x="947" y="740" />
            </Array>
          </mxGeometry>
        </mxCell>
      </root>
    </mxGraphModel>
  </diagram>
  <diagram id="XWz_SnoPFaf4rfMk27bi" name="Halaman-3">
    <mxGraphModel dx="880" dy="468" grid="1" gridSize="10" guides="1" tooltips="1" connect="1" arrows="1" fold="1" page="1" pageScale="1" pageWidth="827" pageHeight="1169" math="0" shadow="0">
      <root>
        <mxCell id="0" />
        <mxCell id="1" parent="0" />
        <mxCell id="B4bIFntrgJnw8p-HVf5X-1" value="Start" style="whiteSpace=wrap;strokeWidth=2;" vertex="1" parent="1">
          <mxGeometry x="274" y="20" width="96" height="49" as="geometry" />
        </mxCell>
        <mxCell id="B4bIFntrgJnw8p-HVf5X-2" value="Setup" style="whiteSpace=wrap;strokeWidth=2;" vertex="1" parent="1">
          <mxGeometry x="271" y="119" width="101" height="49" as="geometry" />
        </mxCell>
        <mxCell id="B4bIFntrgJnw8p-HVf5X-3" value="InitializeLED" style="whiteSpace=wrap;strokeWidth=2;" vertex="1" parent="1">
          <mxGeometry x="247" y="218" width="149" height="49" as="geometry" />
        </mxCell>
        <mxCell id="B4bIFntrgJnw8p-HVf5X-4" value="ConnectWiFi" style="whiteSpace=wrap;strokeWidth=2;" vertex="1" parent="1">
          <mxGeometry x="247" y="317" width="150" height="49" as="geometry" />
        </mxCell>
        <mxCell id="B4bIFntrgJnw8p-HVf5X-5" value="WiFi Terhubung?" style="rhombus;strokeWidth=2;whiteSpace=wrap;" vertex="1" parent="1">
          <mxGeometry x="164" y="416" width="166" height="166" as="geometry" />
        </mxCell>
        <mxCell id="B4bIFntrgJnw8p-HVf5X-6" value="PrintIPAddress" style="whiteSpace=wrap;strokeWidth=2;" vertex="1" parent="1">
          <mxGeometry x="143" y="655" width="161" height="49" as="geometry" />
        </mxCell>
        <mxCell id="B4bIFntrgJnw8p-HVf5X-7" value="RetryWiFi" style="whiteSpace=wrap;strokeWidth=2;" vertex="1" parent="1">
          <mxGeometry x="355" y="655" width="129" height="49" as="geometry" />
        </mxCell>
        <mxCell id="B4bIFntrgJnw8p-HVf5X-8" value="StartServer" style="whiteSpace=wrap;strokeWidth=2;" vertex="1" parent="1">
          <mxGeometry x="153" y="754" width="141" height="49" as="geometry" />
        </mxCell>
        <mxCell id="B4bIFntrgJnw8p-HVf5X-9" value="WaitForRequest" style="whiteSpace=wrap;strokeWidth=2;" vertex="1" parent="1">
          <mxGeometry x="137" y="853" width="174" height="49" as="geometry" />
        </mxCell>
        <mxCell id="B4bIFntrgJnw8p-HVf5X-10" value="Permintaan dari Klien?" style="rhombus;strokeWidth=2;whiteSpace=wrap;" vertex="1" parent="1">
          <mxGeometry x="20" y="975" width="210" height="210" as="geometry" />
        </mxCell>
        <mxCell id="B4bIFntrgJnw8p-HVf5X-11" value="ServeRoot" style="whiteSpace=wrap;strokeWidth=2;" vertex="1" parent="1">
          <mxGeometry x="127" y="1258" width="132" height="49" as="geometry" />
        </mxCell>
        <mxCell id="B4bIFntrgJnw8p-HVf5X-12" value="HandlePWM" style="whiteSpace=wrap;strokeWidth=2;" vertex="1" parent="1">
          <mxGeometry x="314" y="1258" width="145" height="49" as="geometry" />
        </mxCell>
        <mxCell id="B4bIFntrgJnw8p-HVf5X-13" value="UpdatePWM" style="whiteSpace=wrap;strokeWidth=2;" vertex="1" parent="1">
          <mxGeometry x="313" y="1357" width="146" height="49" as="geometry" />
        </mxCell>
        <mxCell id="B4bIFntrgJnw8p-HVf5X-14" value="" style="curved=1;startArrow=none;endArrow=block;exitX=0.49;exitY=1;entryX=0.5;entryY=0;rounded=0;" edge="1" parent="1" source="B4bIFntrgJnw8p-HVf5X-1" target="B4bIFntrgJnw8p-HVf5X-2">
          <mxGeometry relative="1" as="geometry">
            <Array as="points" />
          </mxGeometry>
        </mxCell>
        <mxCell id="B4bIFntrgJnw8p-HVf5X-15" value="" style="curved=1;startArrow=none;endArrow=block;exitX=0.5;exitY=1;entryX=0.5;entryY=0;rounded=0;" edge="1" parent="1" source="B4bIFntrgJnw8p-HVf5X-2" target="B4bIFntrgJnw8p-HVf5X-3">
          <mxGeometry relative="1" as="geometry">
            <Array as="points" />
          </mxGeometry>
        </mxCell>
        <mxCell id="B4bIFntrgJnw8p-HVf5X-16" value="" style="curved=1;startArrow=none;endArrow=block;exitX=0.5;exitY=1;entryX=0.5;entryY=0;rounded=0;" edge="1" parent="1" source="B4bIFntrgJnw8p-HVf5X-3" target="B4bIFntrgJnw8p-HVf5X-4">
          <mxGeometry relative="1" as="geometry">
            <Array as="points" />
          </mxGeometry>
        </mxCell>
        <mxCell id="B4bIFntrgJnw8p-HVf5X-17" value="" style="curved=1;startArrow=none;endArrow=block;exitX=0.25;exitY=1;entryX=0.5;entryY=0;rounded=0;" edge="1" parent="1" source="B4bIFntrgJnw8p-HVf5X-4" target="B4bIFntrgJnw8p-HVf5X-5">
          <mxGeometry relative="1" as="geometry">
            <Array as="points">
              <mxPoint x="247" y="391" />
            </Array>
          </mxGeometry>
        </mxCell>
        <mxCell id="B4bIFntrgJnw8p-HVf5X-18" value="Yes" style="curved=1;startArrow=none;endArrow=block;exitX=0.4;exitY=1;entryX=0.5;entryY=-0.01;rounded=0;" edge="1" parent="1" source="B4bIFntrgJnw8p-HVf5X-5" target="B4bIFntrgJnw8p-HVf5X-6">
          <mxGeometry relative="1" as="geometry">
            <Array as="points">
              <mxPoint x="224" y="618" />
            </Array>
          </mxGeometry>
        </mxCell>
        <mxCell id="B4bIFntrgJnw8p-HVf5X-19" value="No" style="curved=1;startArrow=none;endArrow=block;exitX=1;exitY=1;entryX=0.33;entryY=-0.01;rounded=0;" edge="1" parent="1" source="B4bIFntrgJnw8p-HVf5X-5" target="B4bIFntrgJnw8p-HVf5X-7">
          <mxGeometry relative="1" as="geometry">
            <Array as="points">
              <mxPoint x="366" y="618" />
            </Array>
          </mxGeometry>
        </mxCell>
        <mxCell id="B4bIFntrgJnw8p-HVf5X-20" value="" style="curved=1;startArrow=none;endArrow=block;exitX=0.59;exitY=-0.01;entryX=0.91;entryY=1;rounded=0;" edge="1" parent="1" source="B4bIFntrgJnw8p-HVf5X-7" target="B4bIFntrgJnw8p-HVf5X-4">
          <mxGeometry relative="1" as="geometry">
            <Array as="points">
              <mxPoint x="448" y="618" />
              <mxPoint x="448" y="391" />
            </Array>
          </mxGeometry>
        </mxCell>
        <mxCell id="B4bIFntrgJnw8p-HVf5X-21" value="" style="curved=1;startArrow=none;endArrow=block;exitX=0.5;exitY=0.99;entryX=0.5;entryY=-0.01;rounded=0;" edge="1" parent="1" source="B4bIFntrgJnw8p-HVf5X-6" target="B4bIFntrgJnw8p-HVf5X-8">
          <mxGeometry relative="1" as="geometry">
            <Array as="points" />
          </mxGeometry>
        </mxCell>
        <mxCell id="B4bIFntrgJnw8p-HVf5X-22" value="" style="curved=1;startArrow=none;endArrow=block;exitX=0.5;exitY=0.99;entryX=0.5;entryY=-0.01;rounded=0;" edge="1" parent="1" source="B4bIFntrgJnw8p-HVf5X-8" target="B4bIFntrgJnw8p-HVf5X-9">
          <mxGeometry relative="1" as="geometry">
            <Array as="points" />
          </mxGeometry>
        </mxCell>
        <mxCell id="B4bIFntrgJnw8p-HVf5X-23" value="" style="curved=1;startArrow=none;endArrow=block;exitX=0.21;exitY=0.99;entryX=0.4;entryY=0;rounded=0;" edge="1" parent="1" source="B4bIFntrgJnw8p-HVf5X-9" target="B4bIFntrgJnw8p-HVf5X-10">
          <mxGeometry relative="1" as="geometry">
            <Array as="points">
              <mxPoint x="96" y="938" />
            </Array>
          </mxGeometry>
        </mxCell>
        <mxCell id="B4bIFntrgJnw8p-HVf5X-24" value="Halaman Utama" style="curved=1;startArrow=none;endArrow=block;exitX=0.5;exitY=1;entryX=0.29;entryY=0;rounded=0;" edge="1" parent="1" source="B4bIFntrgJnw8p-HVf5X-10" target="B4bIFntrgJnw8p-HVf5X-11">
          <mxGeometry relative="1" as="geometry">
            <Array as="points">
              <mxPoint x="125" y="1221" />
            </Array>
          </mxGeometry>
        </mxCell>
        <mxCell id="B4bIFntrgJnw8p-HVf5X-25" value="Set PWM" style="curved=1;startArrow=none;endArrow=block;exitX=1;exitY=0.77;entryX=0.5;entryY=0;rounded=0;" edge="1" parent="1" source="B4bIFntrgJnw8p-HVf5X-10" target="B4bIFntrgJnw8p-HVf5X-12">
          <mxGeometry relative="1" as="geometry">
            <Array as="points">
              <mxPoint x="386" y="1221" />
            </Array>
          </mxGeometry>
        </mxCell>
        <mxCell id="B4bIFntrgJnw8p-HVf5X-26" value="Tidak Ada" style="curved=1;startArrow=none;endArrow=block;exitX=0.6;exitY=0;entryX=0.34;entryY=0.99;rounded=0;" edge="1" parent="1" source="B4bIFntrgJnw8p-HVf5X-10" target="B4bIFntrgJnw8p-HVf5X-9">
          <mxGeometry relative="1" as="geometry">
            <Array as="points">
              <mxPoint x="154" y="938" />
            </Array>
          </mxGeometry>
        </mxCell>
        <mxCell id="B4bIFntrgJnw8p-HVf5X-27" value="" style="curved=1;startArrow=none;endArrow=block;exitX=0.72;exitY=0;entryX=0.6;entryY=0.99;rounded=0;" edge="1" parent="1" source="B4bIFntrgJnw8p-HVf5X-11" target="B4bIFntrgJnw8p-HVf5X-9">
          <mxGeometry relative="1" as="geometry">
            <Array as="points">
              <mxPoint x="265" y="1221" />
              <mxPoint x="265" y="938" />
            </Array>
          </mxGeometry>
        </mxCell>
        <mxCell id="B4bIFntrgJnw8p-HVf5X-28" value="" style="curved=1;startArrow=none;endArrow=block;exitX=0.5;exitY=1;entryX=0.5;entryY=0;rounded=0;" edge="1" parent="1" source="B4bIFntrgJnw8p-HVf5X-12" target="B4bIFntrgJnw8p-HVf5X-13">
          <mxGeometry relative="1" as="geometry">
            <Array as="points" />
          </mxGeometry>
        </mxCell>
        <mxCell id="B4bIFntrgJnw8p-HVf5X-29" value="" style="curved=1;startArrow=none;endArrow=block;exitX=0.86;exitY=0;entryX=1;entryY=0.89;rounded=0;" edge="1" parent="1" source="B4bIFntrgJnw8p-HVf5X-13" target="B4bIFntrgJnw8p-HVf5X-9">
          <mxGeometry relative="1" as="geometry">
            <Array as="points">
              <mxPoint x="493" y="1332" />
              <mxPoint x="493" y="938" />
            </Array>
          </mxGeometry>
        </mxCell>
      </root>
    </mxGraphModel>
  </diagram>
</mxfile>
